<svg xmlns="http://www.w3.org/2000/svg" viewBox="0 0 1000 1000" width="1000" height="1000" style="width:100%;height:100%;transform:translate3d(0,0,0);content-visibility:visible"><defs><clipPath id="a"><path d="M0 0h1000v1000H0z"/></clipPath></defs><g clip-path="url(#a)"><g style="display:block"><g transform="translate(125.029 633.447)"/><g transform="translate(98.466 541.874)"/><g transform="translate(125.437 450.301)"/></g><g style="display:block"><g transform="translate(125.029 633.447)"/><g transform="translate(98.466 541.874)"/><g transform="translate(125.437 450.301)"/></g><g style="display:block"><g transform="translate(125.029 633.447)"/><g transform="translate(98.466 541.874)"/><g transform="translate(125.437 450.301)"/></g><g style="display:block"><path fill="#FFB100" d="m581.619 672.981-411.64-.89.741-342.176 411.64.891-.741 342.175z"/><path fill="#FF6E31" d="M482.136 225.22c-11.157-11.206-26.557-18.153-43.596-18.19-17.038-.037-32.47 6.843-43.675 18.001-11.208 11.159-18.155 26.56-18.192 43.598l-.133 61.733 61.732.133c34.077.074 61.793-27.522 61.867-61.599.037-17.038-6.844-32.469-18.003-43.676z"/><path fill="#FFF" d="m438.345 296.912-28.15-.061.061-28.15a27.957 27.957 0 0 1 8.298-19.877 27.956 27.956 0 0 1 19.913-8.212 27.96 27.96 0 0 1 19.878 8.298 27.957 27.957 0 0 1 8.211 19.913c-.034 15.556-12.654 28.122-28.21 28.089z"/><path fill="#FF6E31" d="M253.207 268.362c-.073 34.077 27.523 61.793 61.6 61.866l61.733.134.133-61.733c.037-17.038-6.844-32.469-18.002-43.676-11.158-11.206-26.56-18.154-43.597-18.19-17.039-.037-32.469 6.843-43.675 18.001-11.207 11.159-18.155 26.56-18.192 43.598z"/><path fill="#FFF" d="M286.791 268.433a27.957 27.957 0 0 1 8.297-19.877 27.96 27.96 0 0 1 19.914-8.212 27.956 27.956 0 0 1 19.877 8.299 27.957 27.957 0 0 1 8.212 19.912l-.06 28.15-28.15-.06c-15.558-.034-28.123-12.655-28.09-28.212z"/><path fill="#FFB100" d="m600.727 411.461-448.723-.97.174-80.615 448.723.971-.174 80.614z"/><path fill="#FF6E31" d="m337.742 330.278 77.605.168-.74 342.171-77.606-.168.74-342.171z"/><path fill="#4D4D4D" d="m170.546 410.535 167.021.362-.062 28.736-167.022-.362.063-28.736zm411.632.891-.063 28.736-167.005-.361.062-28.736 167.006.361z" opacity=".2"/><path fill="#4D4D4D" d="m414.935 411.24-.063 28.735-77.53-.168.063-28.736 77.53.168z" opacity=".2"/><path fill="#E4E4E4" d="m469.972 514.883 46.544.101-.16 74.02-46.544-.1.16-74.02z"/><path fill="#E4E4E4" d="m446.87 526.64 92.698.2-46.249-46.448-46.45 46.248zm-211.105-12.263 46.546.1-.16 74.02-46.546-.1.16-74.02z"/><path fill="#E4E4E4" d="m212.662 526.133 92.698.2-46.248-46.448-46.45 46.248z"/></g><g style="display:block"><path fill="#E4E4E4" d="M719.126 698.987c16.346-12.39 39.733-9.17 52.123 7.176s9.17 39.733-7.176 52.123-39.733 9.17-52.123-7.176-9.17-39.733 7.176-52.123z"/><path fill="#666" d="M699.872 764.769a55.591 55.591 0 0 1-2.26-2.791c-18.414-24.293-13.648-58.915 10.646-77.33 17.379-13.172 40.037-14.486 58.261-5.277a54.962 54.962 0 0 1 19.08 15.915 54.89 54.89 0 0 1 2.068 2.921c15.944 24.092 10.63 56.732-12.718 74.429-23.337 17.688-56.197 13.983-75.077-7.867zm59.776-49.813c-7.541-9.95-21.778-11.91-31.728-4.367-9.95 7.542-11.91 21.777-4.368 31.727s21.777 11.911 31.727 4.369 11.912-21.779 4.37-31.73z"/><path fill="#E4E4E4" d="M713.488 692.618a4.024 4.024 0 0 1 5.63.775 4.024 4.024 0 0 1-.775 5.63 4.024 4.024 0 0 1-5.63-.775 4.024 4.024 0 0 1 .775-5.63z"/></g><g style="display:block"><path fill="#E4E4E4" d="M264.12 716.327c16.345-12.39 39.733-9.17 52.122 7.176 12.39 16.346 9.17 39.733-7.176 52.123s-39.733 9.17-52.123-7.177c-12.39-16.345-9.17-39.732 7.176-52.122z"/><path fill="#666" d="M330.585 712.631c.726.957 1.42 1.938 2.076 2.931 15.937 24.081 10.623 56.721-12.714 74.41-23.347 17.696-56.21 13.993-75.088-7.859a55.591 55.591 0 0 1-2.26-2.79c-5.242-6.915-8.608-14.668-10.161-22.66-3.96-20.038 3.438-41.505 20.818-54.678 24.293-18.414 58.916-13.647 77.33 10.646zm-25.94 19.662c-7.542-9.95-21.777-11.91-31.727-4.368s-11.91 21.778-4.37 31.728c7.543 9.95 21.779 11.91 31.73 4.368 9.95-7.542 11.909-21.777 4.367-31.728z"/><path fill="#E4E4E4" d="M255.547 705.5a4.024 4.024 0 0 1 5.63.776 4.024 4.024 0 0 1-.775 5.63 4.024 4.024 0 0 1-5.63-.775 4.024 4.024 0 0 1 .775-5.63z"/></g><g style="display:block"><path fill="#FED049" d="M836.49 552.569v160.854h-34.181a58.848 58.848 0 0 0-2.237-5.116c-11.3-23.127-34.312-37.504-60.055-37.504-28.325 0-52.587 17.683-62.308 42.62a67.093 67.093 0 0 0-4.408 27.798h-52.373V411.253c0-6.938 5.625-12.562 12.563-12.562h141.925c18.291 0 33.128 14.836 33.128 33.111v79.415c0 11.679 7.171 21.696 17.353 25.874 6.349 2.599 10.593 8.635 10.593 15.478z"/><path fill="#B0B0B0" d="M850.34 713.41v27.798h-43.598a65.77 65.77 0 0 0 .104-3.589c0-8.392-1.524-16.513-4.532-24.209h48.026zm-693.199 0v27.798h59.948a65.772 65.772 0 0 1-.103-3.589c0-8.392 1.523-16.513 4.531-24.209h-64.376zm516.055 24.211c0 1.203.038 2.408.112 3.593H350.53a77.66 77.66 0 0 0 .093-3.593c0-8.538-1.592-16.705-4.518-24.205h331.61a66.84 66.84 0 0 0-4.519 24.205z"/><path fill="#4D4D4D" d="M643.199 398.69v314.732h-22.272v-302.17c0-6.938 5.625-12.562 12.563-12.562h9.709z" opacity=".2"/><path fill="#FFF" d="M821.536 679.615c-16.098 0-29.148-13.05-29.148-29.148s13.05-29.148 29.148-29.148v58.296zm-77.817-247.867h-75.311a9.036 9.036 0 0 0-9.037 9.036v76.658a9.036 9.036 0 0 0 9.037 9.036h75.311v-94.73zm35.41 0H764.09v94.73h15.039a9.036 9.036 0 0 0 9.037-9.036v-76.658a9.036 9.036 0 0 0-9.037-9.036z"/><path fill="#B0B0B0" d="M620.927 671.379H157.141v42.03h463.786v-42.03z"/></g></g></svg>